<mxfile host="app.diagrams.net" modified="2023-12-13T15:17:46.994Z" agent="Mozilla/5.0 (Windows NT 10.0; Win64; x64) AppleWebKit/537.36 (KHTML, like Gecko) Chrome/120.0.0.0 Safari/537.36" etag="5C7TNRg84Vg5g7Wxf34B" version="22.1.8" type="device">
  <diagram name="Page-1" id="mcRJoiFZVbyGvoiC1dqz">
    <mxGraphModel dx="1340" dy="1813" grid="1" gridSize="10" guides="1" tooltips="1" connect="1" arrows="1" fold="1" page="1" pageScale="1" pageWidth="850" pageHeight="1100" math="0" shadow="0">
      <root>
        <mxCell id="0" />
        <mxCell id="1" parent="0" />
        <mxCell id="tm53eODnrKpvhOiwJkyI-2" value="«Component»&lt;br&gt;&amp;lt;&amp;lt;Container (C4)&amp;gt;&amp;gt;&lt;br&gt;SPA" style="html=1;dropTarget=0;whiteSpace=wrap;verticalAlign=top;fillColor=#72C9F7;strokeColor=#000000;strokeWidth=2;" parent="1" vertex="1">
          <mxGeometry x="149.62" y="30" width="425.38" height="410" as="geometry" />
        </mxCell>
        <mxCell id="tm53eODnrKpvhOiwJkyI-3" value="" style="shape=module;jettyWidth=8;jettyHeight=4;fillColor=#72c9f7;" parent="tm53eODnrKpvhOiwJkyI-2" vertex="1">
          <mxGeometry x="1" width="20" height="20" relative="1" as="geometry">
            <mxPoint x="-27" y="7" as="offset" />
          </mxGeometry>
        </mxCell>
        <mxCell id="tm53eODnrKpvhOiwJkyI-13" value="«component»&lt;br&gt;&lt;b&gt;Component&lt;/b&gt;" style="html=1;dropTarget=0;whiteSpace=wrap;fillColor=#7ACFF5;" parent="1" vertex="1">
          <mxGeometry x="294" y="90" width="140" height="50" as="geometry" />
        </mxCell>
        <mxCell id="tm53eODnrKpvhOiwJkyI-14" value="" style="shape=module;jettyWidth=8;jettyHeight=4;fillColor=#7ACFF5;" parent="tm53eODnrKpvhOiwJkyI-13" vertex="1">
          <mxGeometry x="1" width="20" height="20" relative="1" as="geometry">
            <mxPoint x="-27" y="7" as="offset" />
          </mxGeometry>
        </mxCell>
        <mxCell id="tm53eODnrKpvhOiwJkyI-36" value="«component»&lt;br&gt;&lt;b&gt;Data Model&lt;/b&gt;" style="html=1;dropTarget=0;whiteSpace=wrap;fillColor=#7ACFF5;" parent="1" vertex="1">
          <mxGeometry x="360" y="340" width="140" height="50" as="geometry" />
        </mxCell>
        <mxCell id="tm53eODnrKpvhOiwJkyI-37" value="" style="shape=module;jettyWidth=8;jettyHeight=4;fillColor=#7ACFF5;" parent="tm53eODnrKpvhOiwJkyI-36" vertex="1">
          <mxGeometry x="1" width="20" height="20" relative="1" as="geometry">
            <mxPoint x="-27" y="7" as="offset" />
          </mxGeometry>
        </mxCell>
        <mxCell id="tm53eODnrKpvhOiwJkyI-95" value="" style="html=1;rounded=0;fillColor=#72C9F7;" parent="1" vertex="1">
          <mxGeometry x="566" y="180" width="18.5" height="20" as="geometry" />
        </mxCell>
        <mxCell id="tm53eODnrKpvhOiwJkyI-100" value="MDRI API" style="text;html=1;align=center;verticalAlign=middle;resizable=0;points=[];autosize=1;strokeColor=none;fillColor=none;fontStyle=1" parent="1" vertex="1">
          <mxGeometry x="585" y="150" width="80" height="30" as="geometry" />
        </mxCell>
        <mxCell id="Turkrqh6ArZdZiuTQP_s-1" value="«component»&lt;br&gt;&lt;b&gt;Service Info&lt;/b&gt;" style="html=1;dropTarget=0;whiteSpace=wrap;fillColor=#7ACFF5;" parent="1" vertex="1">
          <mxGeometry x="294" y="210" width="140" height="50" as="geometry" />
        </mxCell>
        <mxCell id="Turkrqh6ArZdZiuTQP_s-2" value="" style="shape=module;jettyWidth=8;jettyHeight=4;fillColor=#7ACFF5;" parent="Turkrqh6ArZdZiuTQP_s-1" vertex="1">
          <mxGeometry x="1" width="20" height="20" relative="1" as="geometry">
            <mxPoint x="-27" y="7" as="offset" />
          </mxGeometry>
        </mxCell>
        <mxCell id="Turkrqh6ArZdZiuTQP_s-8" value="" style="shape=providedRequiredInterface;html=1;verticalLabelPosition=bottom;sketch=0;rotation=-90;fillColor=#72c9f7;" parent="1" vertex="1">
          <mxGeometry x="415" y="290" width="30" height="30" as="geometry" />
        </mxCell>
        <mxCell id="Turkrqh6ArZdZiuTQP_s-10" value="" style="endArrow=none;html=1;rounded=0;exitX=0.5;exitY=0;exitDx=0;exitDy=0;entryX=0;entryY=0.5;entryDx=0;entryDy=0;entryPerimeter=0;" parent="1" source="tm53eODnrKpvhOiwJkyI-36" target="Turkrqh6ArZdZiuTQP_s-8" edge="1">
          <mxGeometry width="50" height="50" relative="1" as="geometry">
            <mxPoint x="572.54" y="457.29999999999995" as="sourcePoint" />
            <mxPoint x="362" y="317" as="targetPoint" />
          </mxGeometry>
        </mxCell>
        <mxCell id="Turkrqh6ArZdZiuTQP_s-11" value="" style="endArrow=none;html=1;rounded=0;exitX=1;exitY=0.5;exitDx=0;exitDy=0;exitPerimeter=0;entryX=0.5;entryY=1;entryDx=0;entryDy=0;" parent="1" source="Turkrqh6ArZdZiuTQP_s-8" target="Turkrqh6ArZdZiuTQP_s-1" edge="1">
          <mxGeometry width="50" height="50" relative="1" as="geometry">
            <mxPoint x="380" y="300" as="sourcePoint" />
            <mxPoint x="277" y="273" as="targetPoint" />
          </mxGeometry>
        </mxCell>
        <mxCell id="Turkrqh6ArZdZiuTQP_s-20" value="" style="endArrow=none;html=1;rounded=0;exitX=1;exitY=0.5;exitDx=0;exitDy=0;entryX=0;entryY=0.5;entryDx=0;entryDy=0;" parent="1" source="Turkrqh6ArZdZiuTQP_s-1" target="tm53eODnrKpvhOiwJkyI-95" edge="1">
          <mxGeometry width="50" height="50" relative="1" as="geometry">
            <mxPoint x="380" y="300" as="sourcePoint" />
            <mxPoint x="470" y="273" as="targetPoint" />
          </mxGeometry>
        </mxCell>
        <mxCell id="Turkrqh6ArZdZiuTQP_s-29" value="" style="shape=providedRequiredInterface;html=1;verticalLabelPosition=bottom;sketch=0;rotation=-90;fillColor=#72c9f7;" parent="1" vertex="1">
          <mxGeometry x="349" y="160" width="30" height="30" as="geometry" />
        </mxCell>
        <mxCell id="Turkrqh6ArZdZiuTQP_s-30" value="" style="endArrow=none;html=1;rounded=0;exitX=1;exitY=0.5;exitDx=0;exitDy=0;exitPerimeter=0;entryX=0.5;entryY=1;entryDx=0;entryDy=0;" parent="1" source="Turkrqh6ArZdZiuTQP_s-29" target="tm53eODnrKpvhOiwJkyI-13" edge="1">
          <mxGeometry width="50" height="50" relative="1" as="geometry">
            <mxPoint x="710" y="208.5" as="sourcePoint" />
            <mxPoint x="530" y="138.5" as="targetPoint" />
          </mxGeometry>
        </mxCell>
        <mxCell id="Turkrqh6ArZdZiuTQP_s-31" value="" style="endArrow=none;html=1;rounded=0;exitX=0.5;exitY=0;exitDx=0;exitDy=0;entryX=0;entryY=0.5;entryDx=0;entryDy=0;entryPerimeter=0;" parent="1" source="Turkrqh6ArZdZiuTQP_s-1" target="Turkrqh6ArZdZiuTQP_s-29" edge="1">
          <mxGeometry width="50" height="50" relative="1" as="geometry">
            <mxPoint x="457" y="211.5" as="sourcePoint" />
            <mxPoint x="467" y="168.5" as="targetPoint" />
          </mxGeometry>
        </mxCell>
        <mxCell id="9Mon3FYG486TtS0ysHM5-1" value="«component»&lt;br&gt;&lt;b&gt;Domain&lt;/b&gt;" style="html=1;dropTarget=0;whiteSpace=wrap;fillColor=#7ACFF5;" vertex="1" parent="1">
          <mxGeometry x="209" y="340" width="140" height="50" as="geometry" />
        </mxCell>
        <mxCell id="9Mon3FYG486TtS0ysHM5-2" value="" style="shape=module;jettyWidth=8;jettyHeight=4;fillColor=#7ACFF5;" vertex="1" parent="9Mon3FYG486TtS0ysHM5-1">
          <mxGeometry x="1" width="20" height="20" relative="1" as="geometry">
            <mxPoint x="-27" y="7" as="offset" />
          </mxGeometry>
        </mxCell>
        <mxCell id="9Mon3FYG486TtS0ysHM5-3" value="" style="shape=providedRequiredInterface;html=1;verticalLabelPosition=bottom;sketch=0;rotation=-90;fillColor=#72c9f7;" vertex="1" parent="1">
          <mxGeometry x="264" y="290" width="30" height="30" as="geometry" />
        </mxCell>
        <mxCell id="9Mon3FYG486TtS0ysHM5-4" value="" style="endArrow=none;html=1;rounded=0;exitX=0.5;exitY=0;exitDx=0;exitDy=0;entryX=0;entryY=0.5;entryDx=0;entryDy=0;entryPerimeter=0;" edge="1" parent="1" target="9Mon3FYG486TtS0ysHM5-3" source="9Mon3FYG486TtS0ysHM5-1">
          <mxGeometry width="50" height="50" relative="1" as="geometry">
            <mxPoint x="326" y="340" as="sourcePoint" />
            <mxPoint x="258" y="317" as="targetPoint" />
          </mxGeometry>
        </mxCell>
        <mxCell id="9Mon3FYG486TtS0ysHM5-5" value="" style="endArrow=none;html=1;rounded=0;exitX=1;exitY=0.5;exitDx=0;exitDy=0;exitPerimeter=0;entryX=0.5;entryY=1;entryDx=0;entryDy=0;" edge="1" parent="1" source="9Mon3FYG486TtS0ysHM5-3" target="Turkrqh6ArZdZiuTQP_s-1">
          <mxGeometry width="50" height="50" relative="1" as="geometry">
            <mxPoint x="276" y="300" as="sourcePoint" />
            <mxPoint x="260" y="260" as="targetPoint" />
          </mxGeometry>
        </mxCell>
        <mxCell id="9Mon3FYG486TtS0ysHM5-6" value="" style="endArrow=none;html=1;rounded=0;align=center;verticalAlign=top;endFill=0;labelBackgroundColor=none;endSize=2;entryX=1;entryY=0.5;entryDx=0;entryDy=0;entryPerimeter=0;exitX=1;exitY=0.5;exitDx=0;exitDy=0;" edge="1" parent="1" target="9Mon3FYG486TtS0ysHM5-7" source="tm53eODnrKpvhOiwJkyI-95">
          <mxGeometry relative="1" as="geometry">
            <mxPoint x="924.75" y="25.5" as="targetPoint" />
            <mxPoint x="590" y="237.5" as="sourcePoint" />
          </mxGeometry>
        </mxCell>
        <mxCell id="9Mon3FYG486TtS0ysHM5-7" value="" style="shape=requiredInterface;html=1;verticalLabelPosition=bottom;sketch=0;rotation=-180;" vertex="1" parent="1">
          <mxGeometry x="650" y="180" width="10" height="20" as="geometry" />
        </mxCell>
        <mxCell id="9Mon3FYG486TtS0ysHM5-8" value="" style="endArrow=none;html=1;rounded=0;align=center;verticalAlign=top;endFill=0;labelBackgroundColor=none;endSize=2;entryX=1;entryY=0.5;entryDx=0;entryDy=0;entryPerimeter=0;exitX=1;exitY=0.5;exitDx=0;exitDy=0;" edge="1" parent="1" target="9Mon3FYG486TtS0ysHM5-9" source="9Mon3FYG486TtS0ysHM5-10">
          <mxGeometry relative="1" as="geometry">
            <mxPoint x="886.75" y="53" as="targetPoint" />
            <mxPoint x="612.5" y="310" as="sourcePoint" />
          </mxGeometry>
        </mxCell>
        <mxCell id="9Mon3FYG486TtS0ysHM5-9" value="" style="shape=requiredInterface;html=1;verticalLabelPosition=bottom;sketch=0;rotation=-180;" vertex="1" parent="1">
          <mxGeometry x="650" y="230" width="10" height="20" as="geometry" />
        </mxCell>
        <mxCell id="9Mon3FYG486TtS0ysHM5-10" value="" style="html=1;rounded=0;fillColor=#72C9F7;" vertex="1" parent="1">
          <mxGeometry x="566" y="230" width="18.5" height="20" as="geometry" />
        </mxCell>
        <mxCell id="9Mon3FYG486TtS0ysHM5-11" value="" style="html=1;rounded=0;fillColor=#72C9F7;" vertex="1" parent="1">
          <mxGeometry x="566" y="280" width="18.5" height="20" as="geometry" />
        </mxCell>
        <mxCell id="9Mon3FYG486TtS0ysHM5-14" value="" style="endArrow=none;html=1;rounded=0;align=center;verticalAlign=top;endFill=0;labelBackgroundColor=none;endSize=2;entryX=1;entryY=0.5;entryDx=0;entryDy=0;entryPerimeter=0;exitX=1;exitY=0.5;exitDx=0;exitDy=0;" edge="1" parent="1" target="9Mon3FYG486TtS0ysHM5-15" source="9Mon3FYG486TtS0ysHM5-11">
          <mxGeometry relative="1" as="geometry">
            <mxPoint x="901.75" y="88" as="targetPoint" />
            <mxPoint x="600" y="260" as="sourcePoint" />
          </mxGeometry>
        </mxCell>
        <mxCell id="9Mon3FYG486TtS0ysHM5-15" value="" style="shape=requiredInterface;html=1;verticalLabelPosition=bottom;sketch=0;rotation=-180;" vertex="1" parent="1">
          <mxGeometry x="650" y="280" width="10" height="20" as="geometry" />
        </mxCell>
        <mxCell id="9Mon3FYG486TtS0ysHM5-16" value="MDT API" style="text;html=1;align=center;verticalAlign=middle;resizable=0;points=[];autosize=1;strokeColor=none;fillColor=none;fontStyle=1" vertex="1" parent="1">
          <mxGeometry x="590" y="200" width="70" height="30" as="geometry" />
        </mxCell>
        <mxCell id="9Mon3FYG486TtS0ysHM5-17" value="Auth API" style="text;html=1;align=center;verticalAlign=middle;resizable=0;points=[];autosize=1;strokeColor=none;fillColor=none;fontStyle=1" vertex="1" parent="1">
          <mxGeometry x="590" y="250" width="70" height="30" as="geometry" />
        </mxCell>
        <mxCell id="9Mon3FYG486TtS0ysHM5-18" value="" style="endArrow=none;html=1;rounded=0;exitX=1;exitY=0.5;exitDx=0;exitDy=0;entryX=0;entryY=0.5;entryDx=0;entryDy=0;" edge="1" parent="1" source="Turkrqh6ArZdZiuTQP_s-1" target="9Mon3FYG486TtS0ysHM5-10">
          <mxGeometry width="50" height="50" relative="1" as="geometry">
            <mxPoint x="444" y="245" as="sourcePoint" />
            <mxPoint x="576" y="210" as="targetPoint" />
          </mxGeometry>
        </mxCell>
        <mxCell id="9Mon3FYG486TtS0ysHM5-19" value="" style="endArrow=none;html=1;rounded=0;exitX=1;exitY=0.5;exitDx=0;exitDy=0;entryX=0;entryY=0.5;entryDx=0;entryDy=0;" edge="1" parent="1" source="Turkrqh6ArZdZiuTQP_s-1" target="9Mon3FYG486TtS0ysHM5-11">
          <mxGeometry width="50" height="50" relative="1" as="geometry">
            <mxPoint x="444" y="245" as="sourcePoint" />
            <mxPoint x="576" y="260" as="targetPoint" />
          </mxGeometry>
        </mxCell>
        <mxCell id="9Mon3FYG486TtS0ysHM5-20" value="" style="html=1;rounded=0;fillColor=#72C9F7;" vertex="1" parent="1">
          <mxGeometry x="220" y="20" width="18.5" height="20" as="geometry" />
        </mxCell>
        <mxCell id="9Mon3FYG486TtS0ysHM5-21" value="" style="endArrow=none;html=1;rounded=0;exitX=0;exitY=0.5;exitDx=0;exitDy=0;entryX=0.5;entryY=1;entryDx=0;entryDy=0;" edge="1" parent="1" source="tm53eODnrKpvhOiwJkyI-13" target="9Mon3FYG486TtS0ysHM5-20">
          <mxGeometry width="50" height="50" relative="1" as="geometry">
            <mxPoint x="444" y="245" as="sourcePoint" />
            <mxPoint x="576" y="200" as="targetPoint" />
          </mxGeometry>
        </mxCell>
        <mxCell id="9Mon3FYG486TtS0ysHM5-24" value="" style="ellipse;whiteSpace=wrap;html=1;aspect=fixed;strokeColor=default;fillColor=#72C9F7;" vertex="1" parent="1">
          <mxGeometry x="219.25" y="-20" width="20" height="20" as="geometry" />
        </mxCell>
        <mxCell id="9Mon3FYG486TtS0ysHM5-25" value="" style="endArrow=none;html=1;rounded=0;exitX=0.5;exitY=0;exitDx=0;exitDy=0;entryX=0.5;entryY=1;entryDx=0;entryDy=0;" edge="1" parent="1" source="9Mon3FYG486TtS0ysHM5-20" target="9Mon3FYG486TtS0ysHM5-24">
          <mxGeometry width="50" height="50" relative="1" as="geometry">
            <mxPoint x="304" y="125" as="sourcePoint" />
            <mxPoint x="239" y="50" as="targetPoint" />
          </mxGeometry>
        </mxCell>
        <mxCell id="9Mon3FYG486TtS0ysHM5-27" value="" style="html=1;rounded=0;fillColor=#72C9F7;" vertex="1" parent="1">
          <mxGeometry x="490.75" y="20" width="18.5" height="20" as="geometry" />
        </mxCell>
        <mxCell id="9Mon3FYG486TtS0ysHM5-30" value="" style="endArrow=none;html=1;rounded=0;align=center;verticalAlign=top;endFill=0;labelBackgroundColor=none;endSize=2;entryX=1;entryY=0.5;entryDx=0;entryDy=0;entryPerimeter=0;exitX=0.5;exitY=0;exitDx=0;exitDy=0;" edge="1" parent="1" target="9Mon3FYG486TtS0ysHM5-31" source="9Mon3FYG486TtS0ysHM5-27">
          <mxGeometry relative="1" as="geometry">
            <mxPoint x="839.5" y="-197" as="targetPoint" />
            <mxPoint x="537.75" y="-10" as="sourcePoint" />
          </mxGeometry>
        </mxCell>
        <mxCell id="9Mon3FYG486TtS0ysHM5-31" value="" style="shape=requiredInterface;html=1;verticalLabelPosition=bottom;sketch=0;rotation=90;" vertex="1" parent="1">
          <mxGeometry x="530" y="-20" width="10" height="20" as="geometry" />
        </mxCell>
        <mxCell id="9Mon3FYG486TtS0ysHM5-32" value="" style="ellipse;whiteSpace=wrap;html=1;aspect=fixed;strokeColor=default;fillColor=#72C9F7;" vertex="1" parent="1">
          <mxGeometry x="460" y="-20" width="20" height="20" as="geometry" />
        </mxCell>
        <mxCell id="9Mon3FYG486TtS0ysHM5-33" value="" style="endArrow=none;html=1;rounded=0;exitX=0.5;exitY=0;exitDx=0;exitDy=0;entryX=0.5;entryY=1;entryDx=0;entryDy=0;" edge="1" parent="1" target="9Mon3FYG486TtS0ysHM5-32" source="9Mon3FYG486TtS0ysHM5-27">
          <mxGeometry width="50" height="50" relative="1" as="geometry">
            <mxPoint x="469.75" y="20" as="sourcePoint" />
            <mxPoint x="479.75" y="50" as="targetPoint" />
          </mxGeometry>
        </mxCell>
        <mxCell id="9Mon3FYG486TtS0ysHM5-34" value="FileSystem" style="text;html=1;align=center;verticalAlign=middle;resizable=0;points=[];autosize=1;strokeColor=none;fillColor=none;fontStyle=1" vertex="1" parent="1">
          <mxGeometry x="460" y="-50" width="90" height="30" as="geometry" />
        </mxCell>
        <mxCell id="9Mon3FYG486TtS0ysHM5-35" value="Webpage" style="text;html=1;align=center;verticalAlign=middle;resizable=0;points=[];autosize=1;strokeColor=none;fillColor=none;fontStyle=1" vertex="1" parent="1">
          <mxGeometry x="239.25" y="-10" width="80" height="30" as="geometry" />
        </mxCell>
        <mxCell id="9Mon3FYG486TtS0ysHM5-36" value="" style="endArrow=none;html=1;rounded=0;exitX=1;exitY=0.5;exitDx=0;exitDy=0;entryX=0.5;entryY=1;entryDx=0;entryDy=0;" edge="1" parent="1" source="tm53eODnrKpvhOiwJkyI-13" target="9Mon3FYG486TtS0ysHM5-27">
          <mxGeometry width="50" height="50" relative="1" as="geometry">
            <mxPoint x="304" y="125" as="sourcePoint" />
            <mxPoint x="239" y="50" as="targetPoint" />
          </mxGeometry>
        </mxCell>
      </root>
    </mxGraphModel>
  </diagram>
</mxfile>
